<svg width="442" height="623" viewBox="0 0 442 623" fill="none" xmlns="http://www.w3.org/2000/svg">
<g filter="url(#filter0_b_1_5)">
<mask id="path-1-inside-1_1_5" fill="white">
<path d="M387.576 4.39549C337.652 -3.55795 286.45 -0.690938 237.889 12.7772C189.327 26.2452 144.693 49.9575 107.4 82.0995C70.1081 114.242 41.1463 153.962 22.7312 198.221C4.316 242.48 -3.06458 290.104 1.15415 337.451C5.37287 384.798 21.0791 430.612 47.0711 471.388C73.0631 512.163 108.652 546.82 151.115 572.706C193.578 598.592 241.789 615.022 292.06 620.738C342.331 626.453 393.329 621.304 441.153 605.683L423.552 558.247C383.44 571.349 340.665 575.668 298.5 570.874C256.335 566.08 215.898 552.299 180.282 530.587C144.666 508.875 114.816 479.807 93.0154 445.606C71.2146 411.405 58.041 372.979 54.5025 333.267C50.964 293.554 57.1545 253.609 72.6003 216.487C88.046 179.364 112.338 146.049 143.617 119.09C174.896 92.1308 212.333 72.2421 253.064 60.9457C293.795 49.6493 336.741 47.2446 378.615 53.9156L387.576 4.39549Z"/>
</mask>
<path d="M387.576 4.39549C337.652 -3.55795 286.45 -0.690938 237.889 12.7772C189.327 26.2452 144.693 49.9575 107.4 82.0995C70.1081 114.242 41.1463 153.962 22.7312 198.221C4.316 242.48 -3.06458 290.104 1.15415 337.451C5.37287 384.798 21.0791 430.612 47.0711 471.388C73.0631 512.163 108.652 546.82 151.115 572.706C193.578 598.592 241.789 615.022 292.06 620.738C342.331 626.453 393.329 621.304 441.153 605.683L423.552 558.247C383.44 571.349 340.665 575.668 298.5 570.874C256.335 566.08 215.898 552.299 180.282 530.587C144.666 508.875 114.816 479.807 93.0154 445.606C71.2146 411.405 58.041 372.979 54.5025 333.267C50.964 293.554 57.1545 253.609 72.6003 216.487C88.046 179.364 112.338 146.049 143.617 119.09C174.896 92.1308 212.333 72.2421 253.064 60.9457C293.795 49.6493 336.741 47.2446 378.615 53.9156L387.576 4.39549Z" stroke="#2AD058" stroke-opacity="0.46" stroke-width="100" mask="url(#path-1-inside-1_1_5)"/>
</g>
<defs>
<filter id="filter0_b_1_5" x="-4.00006" y="-4" width="449.153" height="631" filterUnits="userSpaceOnUse" color-interpolation-filters="sRGB">
<feFlood flood-opacity="0" result="BackgroundImageFix"/>
<feGaussianBlur in="BackgroundImage" stdDeviation="2"/>
<feComposite in2="SourceAlpha" operator="in" result="effect1_backgroundBlur_1_5"/>
<feBlend mode="normal" in="SourceGraphic" in2="effect1_backgroundBlur_1_5" result="shape"/>
</filter>
</defs>
</svg>
